# xmcd
#
# Track frame offsets: 
#        150
#        8070
#        29455
#        51100
#        69725
#        89615
#        127415
#        153225
#        174365
#        195940
#        219360
#        240295
#        269125
#        285665
#        302630
#        323085
#
# Disc length: 4606 seconds
#
# Revision: 0
# Processed by: cddbd v1.5.2PL0 Copyright (c) Steve Scherf et al.
# Submitted via: ExactAudioCopy v0.99pb3
#
DISCID=df11fc10
DTITLE=Helloween - Better Than Raw [MOFR 00400]
DYEAR=1998
DGENRE=Power Metal
TTITLE0=Deliberately Limited Preliminary Prelude In Z
TTITLE1=Push
TTITLE2=Falling Higher
TTITLE3=Hey Lord!
TTITLE4=Don't Spit On My Mind
TTITLE5=Revelation
TTITLE6=Time
TTITLE7=I Can
TTITLE8=A Handful Of Pain
TTITLE9=LAVDATE DOMINVM
TTITLE10=Back On The Ground [Japan Bonus Track]
TTITLE11=Midnight Sun
TTITLE12=A Game We Shouldn't Play ('I Can' Single B-Side)
TTITLE13=Magnetic Fields ('The Time Of The Oath' Single) [Jean Michel 
TTITLE13=Jarre cover]
TTITLE14=Rain ('Power' Single B-Side) [Status Quo cover]
TTITLE15=Walk Your Way ('Power' Single B-Side)
EXTD=
EXTT0=
EXTT1=
EXTT2=
EXTT3=
EXTT4=
EXTT5=
EXTT6=
EXTT7=
EXTT8=
EXTT9=
EXTT10=
EXTT11=
EXTT12=
EXTT13=
EXTT14=
EXTT15=
PLAYORDER=
